<svg xmlns="http://www.w3.org/2000/svg" xmlns:xlink="http://www.w3.org/1999/xlink" width="250" zoomAndPan="magnify" viewBox="0 0 187.5 187.499992" height="250" preserveAspectRatio="xMidYMid meet" version="1.2"><defs/><g id="0fc48f4a35"><path style=" stroke:none;fill-rule:nonzero;fill:#ffffff;fill-opacity:1;" d="M 0 0 L 187 0 L 187 187 L 0 187 Z M 0 0 "/><path style=" stroke:none;fill-rule:nonzero;fill:#000000;fill-opacity:1;" d="M 0 0 L 187 0 L 187 187 L 0 187 Z M 0 0 "/><g style="fill:#ffffff;fill-opacity:1;"><g transform="translate(14.099346, 160.564153)"><path style="stroke:none" d="M 5.3125 -108.859375 C 5.3125 -120.453125 8.070312 -129.351562 13.59375 -135.5625 C 19.125 -141.769531 27.414062 -144.875 38.46875 -144.875 C 49.519531 -144.875 57.804688 -141.769531 63.328125 -135.5625 C 68.859375 -129.351562 71.625 -120.453125 71.625 -108.859375 L 71.625 -104.359375 L 50.34375 -104.359375 L 50.34375 -110.296875 C 50.34375 -115.472656 49.351562 -119.117188 47.375 -121.234375 C 45.394531 -123.347656 42.628906 -124.40625 39.078125 -124.40625 C 35.535156 -124.40625 32.773438 -123.347656 30.796875 -121.234375 C 28.816406 -119.117188 27.828125 -115.472656 27.828125 -110.296875 C 27.828125 -105.378906 28.914062 -101.046875 31.09375 -97.296875 C 33.28125 -93.546875 36.007812 -90 39.28125 -86.65625 C 42.5625 -83.3125 46.078125 -79.96875 49.828125 -76.625 C 53.578125 -73.289062 57.085938 -69.644531 60.359375 -65.6875 C 63.640625 -61.726562 66.367188 -57.222656 68.546875 -52.171875 C 70.734375 -47.128906 71.828125 -41.195312 71.828125 -34.375 C 71.828125 -22.78125 68.992188 -13.878906 63.328125 -7.671875 C 57.671875 -1.460938 49.316406 1.640625 38.265625 1.640625 C 27.210938 1.640625 18.851562 -1.460938 13.1875 -7.671875 C 7.53125 -13.878906 4.703125 -22.78125 4.703125 -34.375 L 4.703125 -43.171875 L 25.984375 -43.171875 L 25.984375 -32.9375 C 25.984375 -27.757812 27.039062 -24.144531 29.15625 -22.09375 C 31.269531 -20.050781 34.101562 -19.03125 37.65625 -19.03125 C 41.195312 -19.03125 44.023438 -20.050781 46.140625 -22.09375 C 48.253906 -24.144531 49.3125 -27.757812 49.3125 -32.9375 C 49.3125 -37.851562 48.21875 -42.1875 46.03125 -45.9375 C 43.851562 -49.6875 41.125 -53.234375 37.84375 -56.578125 C 34.570312 -59.921875 31.0625 -63.265625 27.3125 -66.609375 C 23.5625 -69.953125 20.050781 -73.597656 16.78125 -77.546875 C 13.507812 -81.503906 10.78125 -86.003906 8.59375 -91.046875 C 6.40625 -96.097656 5.3125 -102.035156 5.3125 -108.859375 Z M 5.3125 -108.859375 "/></g></g><g style="fill:#ffffff;fill-opacity:1;"><g transform="translate(90.631505, 160.564153)"><path style="stroke:none" d="M 42.15625 -26.390625 L 59.34375 -143.234375 L 80.015625 -143.234375 L 57.90625 0 L 24.34375 0 L 2.25 -143.234375 L 24.96875 -143.234375 Z M 42.15625 -26.390625 "/></g></g></g></svg>