<?xml version="1.0" standalone="no"?>
<!DOCTYPE svg PUBLIC "-//W3C//DTD SVG 20010904//EN"
 "http://www.w3.org/TR/2001/REC-SVG-20010904/DTD/svg10.dtd">
<svg version="1.0" xmlns="http://www.w3.org/2000/svg"
 width="1024.000000pt" height="1024.000000pt" viewBox="0 0 1024.000000 1024.000000"
 preserveAspectRatio="xMidYMid meet">

<g transform="translate(0.000000,1024.000000) scale(0.100000,-0.100000)"
fill="#000000" stroke="none">
<path d="M0 5120 l0 -5120 5120 0 5120 0 0 5120 0 5120 -5120 0 -5120 0 0
-5120z m3606 2219 c269 -27 494 -99 674 -218 87 -57 226 -197 289 -291 64 -96
107 -192 145 -324 27 -91 61 -274 54 -282 -3 -2 -160 -22 -349 -44 -189 -22
-362 -42 -384 -45 l-41 -6 -17 73 c-54 224 -189 373 -392 434 -81 24 -247 24
-330 0 -233 -69 -368 -249 -352 -470 7 -104 38 -177 106 -245 108 -110 249
-188 726 -401 559 -250 737 -368 914 -610 107 -144 157 -263 191 -454 90 -497
-35 -906 -365 -1196 -281 -247 -645 -370 -1090 -370 -452 1 -829 141 -1080
402 -147 151 -252 324 -315 517 -30 92 -69 296 -58 306 5 5 748 95 789 95 12
0 21 -23 37 -87 58 -236 197 -395 413 -474 87 -32 214 -49 299 -42 181 15 355
108 438 233 70 104 86 158 87 291 0 113 -1 116 -37 190 -78 158 -211 244 -708
464 -251 111 -441 204 -550 271 -483 292 -666 618 -647 1152 7 200 32 303 112
462 107 213 300 408 510 517 252 130 592 186 931 152z m2316 -309 c38 -135
142 -513 233 -840 90 -327 227 -822 305 -1100 77 -278 174 -632 217 -787 43
-155 81 -277 84 -270 4 7 59 199 122 427 133 475 572 2043 704 2507 l88 313
417 0 417 0 -9 -27 c-5 -16 -120 -399 -255 -853 -136 -454 -338 -1131 -450
-1505 -112 -374 -274 -916 -360 -1205 -86 -289 -170 -569 -186 -622 l-30 -98
-497 0 -498 0 -107 348 c-120 392 -333 1085 -492 1607 -59 193 -185 604 -280
915 -96 311 -233 756 -305 990 -72 234 -133 431 -135 438 -4 10 92 12 472 10
l477 -3 68 -245z"/>
</g>
</svg>
